<?xml version="1.0" encoding="UTF-8" standalone="no"?>
<svg
   viewBox="0 0 100 100"
   version="1.1"
   xml:space="preserve"
   x="0px"
   y="0px"
   fill-rule="evenodd"
   clip-rule="evenodd"
   stroke-linejoin="round"
   stroke-miterlimit="2"
   id="svg2"
   sodipodi:docname="account.svg"
   width="100"
   height="100"
   inkscape:version="1.3 (1:1.3+202307231459+0e150ed6c4)"
   xmlns:inkscape="http://www.inkscape.org/namespaces/inkscape"
   xmlns:sodipodi="http://sodipodi.sourceforge.net/DTD/sodipodi-0.dtd"
   xmlns="http://www.w3.org/2000/svg"
   xmlns:svg="http://www.w3.org/2000/svg"
   xmlns:serif="http://www.serif.com/"><defs
     id="defs2" /><sodipodi:namedview
     id="namedview2"
     pagecolor="#505050"
     bordercolor="#eeeeee"
     borderopacity="1"
     inkscape:showpageshadow="0"
     inkscape:pageopacity="0"
     inkscape:pagecheckerboard="0"
     inkscape:deskcolor="#d1d1d1"
     inkscape:zoom="4.6895322"
     inkscape:cx="56.935317"
     inkscape:cy="57.68166"
     inkscape:window-width="1848"
     inkscape:window-height="1016"
     inkscape:window-x="72"
     inkscape:window-y="27"
     inkscape:window-maximized="1"
     inkscape:current-layer="svg2" /><rect
     x="0"
     y="0"
     width="100"
     height="100"
     fill="none"
     id="rect1" /><g
     serif:id="profile"
     id="g1"><path
       d="m 50,12.73 c 9.589,0 17.375,7.785 17.375,17.375 0,9.589 -7.786,17.374 -17.375,17.374 -9.589,0 -17.375,-7.785 -17.375,-17.374 0,-9.59 7.786,-17.375 17.375,-17.375 z M 23.596,80.64 C 20.756,78.381 19.772,74.504 21.189,71.164 26.027,60.037 37.108,52.22 50,52.22 c 12.892,0 23.973,7.817 28.758,18.966 1.408,3.317 0.431,7.166 -2.389,9.41 -7.214,5.815 -16.392,9.265 -26.369,9.265 -9.977,0 -19.155,-3.45 -26.404,-9.221 z"
       id="path1" /></g></svg>
